<svg xmlns="http://www.w3.org/2000/svg" aria-labelledby="company-name" viewBox="0 0 502.555 178.682">
  <defs>
    <linearGradient id="b" x1="0" x2="1" y1="0" y2="0" gradientTransform="scale(-61.15507 61.15507) rotate(-43.586 -.149 24.334)" gradientUnits="userSpaceOnUse" spreadMethod="pad">
      <stop offset="0" stop-color="#fce7e5"/>
      <stop offset=".5" stop-color="#ba8e89"/>
      <stop offset="1" stop-color="#fce6e3"/>
    </linearGradient>
    <linearGradient id="d" x1="0" x2="1" y1="0" y2="0" gradientTransform="matrix(0 -85.08394 -85.08394 0 1050.95 416.846)" gradientUnits="userSpaceOnUse" spreadMethod="pad">
      <stop offset="0" stop-color="#fce7e5"/>
      <stop offset=".5" stop-color="#ba8e89"/>
      <stop offset="1" stop-color="#fce6e3"/>
    </linearGradient>
    <linearGradient id="f" x1="0" x2="1" y1="0" y2="0" gradientTransform="matrix(0 -103.22653 -103.22653 0 972.038 416.846)" gradientUnits="userSpaceOnUse" spreadMethod="pad">
      <stop offset="0" stop-color="#fce7e5"/>
      <stop offset=".5" stop-color="#ba8e89"/>
      <stop offset="1" stop-color="#fce6e3"/>
    </linearGradient>
    <clipPath id="a" clipPathUnits="userSpaceOnUse">
      <path stroke="#000" d="M988.236 410.912c-5.006 0-9.028-1.282-11.798-4.052-2.355-2.383-3.605-5.69-3.903-9.742l12.512-26.069v21.242c0 2.264.537 3.695 1.341 4.588.775.864 2.026 1.371 4.052 1.401h87.233l6.167 12.632z"/>
    </clipPath>
    <clipPath id="c" clipPathUnits="userSpaceOnUse">
      <path d="M1044.693 392.977V340.69h12.513v52.346z"/>
    </clipPath>
    <clipPath id="e" clipPathUnits="userSpaceOnUse">
      <path d="m950.633 410.912-34.474-70.191h14.344l24.623 50.336 11.982-23.792h-17.769l-5.875-12.184h29.561l6.887-14.42h41.879l6.126 12.602h-40.058l-28.068 57.649z"/>
    </clipPath>
  </defs>
  <path d="m34.576 160.107-8.95-20.746-8.88 20.746zm2.915 6.914H13.764l-4.679 10.981H0l21.355-47.453h8.678l21.423 47.453h-9.221zm59.317 3.525c3.48 0 6.543-.666 9.187-2.001 2.643-1.33 4.677-3.232 6.101-5.695 1.424-2.461 2.136-5.321 2.136-8.573 0-3.255-.712-6.112-2.136-8.577-1.424-2.462-3.458-4.36-6.1-5.695-2.645-1.332-5.708-2-9.188-2H85.283v32.541zM76.471 130.55h20.745c5.06 0 9.558.981 13.49 2.948 3.933 1.968 6.982 4.747 9.153 8.339 2.168 3.593 3.255 7.741 3.255 12.441 0 4.7-1.087 8.844-3.255 12.437-2.17 3.595-5.22 6.374-9.153 8.34-3.932 1.967-8.43 2.948-13.49 2.948H76.471zm116.879 0-20.679 47.452h-8.676L143.25 130.55h9.558l15.798 36.607 15.932-36.607zm23.999 0h8.812v47.453h-8.812zm44.707 46.572c-3.414-1.04-6.114-2.421-8.103-4.136l3.052-6.847c1.943 1.536 4.328 2.79 7.155 3.763 2.824.975 5.656 1.459 8.504 1.459 3.53 0 6.16-.566 7.897-1.695 1.739-1.13 2.615-2.623 2.615-4.477 0-1.354-.488-2.475-1.459-3.355-.977-.879-2.203-1.568-3.692-2.067-1.499-.496-3.53-1.06-6.107-1.694-3.614-.858-6.54-1.716-8.774-2.576-2.24-.858-4.16-2.203-5.767-4.035-1.604-1.83-2.405-4.304-2.405-7.423 0-2.62.712-5.004 2.133-7.15 1.428-2.148 3.573-3.855 6.441-5.12 2.871-1.264 6.387-1.899 10.544-1.899 2.895 0 5.742.363 8.543 1.085 2.801.723 5.221 1.763 7.253 3.12l-2.784 6.846a27.512 27.512 0 0 0-6.502-2.78c-2.266-.632-4.454-.948-6.579-.948-3.484 0-6.068.588-7.759 1.762-1.698 1.176-2.544 2.735-2.544 4.678 0 1.354.48 2.465 1.458 3.322.97.86 2.204 1.536 3.693 2.032 1.49.5 3.523 1.063 6.099 1.696 3.53.815 6.416 1.662 8.681 2.543 2.257.88 4.19 2.227 5.796 4.033 1.607 1.808 2.405 4.248 2.405 7.322 0 2.621-.714 4.992-2.133 7.117-1.428 2.127-3.585 3.817-6.479 5.083-2.886 1.264-6.416 1.9-10.574 1.9-3.663 0-7.192-.519-10.608-1.559m88.231-8.306c2.538-1.424 4.523-3.409 5.966-5.966 1.452-2.551 2.173-5.41 2.173-8.574 0-3.162-.721-6.022-2.173-8.576-1.443-2.553-3.428-4.541-5.966-5.965-2.529-1.423-5.377-2.135-8.542-2.135-3.158 0-6.006.712-8.542 2.135-2.529 1.424-4.516 3.412-5.958 5.965-1.45 2.554-2.172 5.414-2.172 8.576 0 3.164.721 6.023 2.172 8.574 1.442 2.557 3.43 4.542 5.958 5.966 2.536 1.424 5.384 2.138 8.542 2.138 3.165 0 6.013-.714 8.542-2.138m-21.622 6.711c-3.888-2.099-6.938-5.016-9.156-8.743-2.21-3.729-3.32-7.898-3.32-12.508 0-4.609 1.11-8.78 3.32-12.508 2.218-3.728 5.268-6.644 9.156-8.745 3.886-2.101 8.246-3.152 13.08-3.152 4.841 0 9.201 1.05 13.09 3.152 3.886 2.101 6.935 5.005 9.154 8.712 2.212 3.707 3.321 7.887 3.321 12.541 0 4.655-1.11 8.838-3.321 12.543-2.219 3.704-5.268 6.61-9.155 8.708-3.888 2.103-8.248 3.155-13.09 3.155-4.833 0-9.193-1.052-13.08-3.155m94.84-35.08c-1.986-1.626-4.904-2.442-8.744-2.442h-10.302v18.916h10.302c3.84 0 6.758-.824 8.744-2.475 1.995-1.65 2.987-3.988 2.987-7.016s-.992-5.357-2.987-6.983m3.19 37.555-9.69-13.895c-.413.043-1.017.066-1.833.066h-10.713v13.83h-8.815v-47.454h19.528c4.112 0 7.69.677 10.747 2.033 3.048 1.356 5.384 3.299 7.013 5.83 1.63 2.531 2.444 5.538 2.444 9.018 0 3.57-.877 6.643-2.615 9.219-1.737 2.576-4.236 4.498-7.486 5.762l10.908 15.591zm57.288-16.742v16.742h-8.813v-16.606l-18.644-30.847h9.418l13.896 23.117 14.035-23.117h8.681z"/>
  <g stroke="#000" stroke-width=".75" clip-path="url(#a)" transform="matrix(1.33333 0 0 -1.33333 -1082.055 547.883)">
    <path fill="url(#b)" stroke="#ba8e89" d="M988.236 410.912c-5.006 0-9.028-1.282-11.798-4.052-2.355-2.383-3.605-5.69-3.903-9.742l12.512-26.069v21.242c0 2.264.537 3.695 1.341 4.588.775.864 2.026 1.371 4.052 1.401h87.233l6.167 12.632z"/>
  </g>
  <g stroke="#000" stroke-width=".75" clip-path="url(#c)" transform="matrix(1.33333 0 0 -1.33333 -1082.055 547.883)">
    <path fill="url(#d)" stroke="#ba8e89" d="M1044.693 392.977V340.69h12.513v52.346z"/>
  </g>
  <g stroke="#000" stroke-width=".75" clip-path="url(#e)" transform="matrix(1.33333 0 0 -1.33333 -1082.055 547.883)">
    <path fill="url(#f)" stroke="#ba8e89" d="m950.633 410.912-34.474-70.191h14.344l24.623 50.336 11.982-23.792h-17.769l-5.875-12.184h29.561l6.887-14.42h41.879l6.126 12.602h-40.058l-28.068 57.649z"/>
  </g>
</svg>
